# xmcd
#
# Track frame offsets:
#	150
#	15732
#	29567
#	44565
#	60120
#
# Disc length: 1061 seconds
#
# Revision: 1
# Processed by: cddbd v1.5.2PL0 Copyright (c) Steve Scherf et al.
# Submitted via: audiograbber 1.83.01
#
DISCID=38042305
DTITLE=Sari and Vexi - Sari and Vexi [CDrM-Promo)
DYEAR=2001
DGENRE=Pop
TTITLE0=Ole Paisteena Auringon
TTITLE1=Liian Myöhäinen
TTITLE2=Kelle kellot Soivat
TTITLE3=Aurinkoon
TTITLE4=Vanha Swingi
EXTD=TR.
EXTT0=
EXTT1=
EXTT2=
EXTT3=
EXTT4=
PLAYORDER=
